# xmcd CD database file
#
# Track frame offsets:
#	150
#	15948
#	32513
#	44090
#	64393
#	82338
#	101688
#	118635
#	134250
#	156053
#	167568
#	183928
#	206783
#	220950
#	238050
#	255863
#
# Disc length: 3634 seconds
#
# Revision: 0
# Processed by: cddbd v1.5.2PL0 Copyright (c) Steve Scherf et al.
# Submitted via: CDex 1.51
#
DISCID=dd0e3010
DTITLE=Queen City Jazz Band - One Night Stand
DYEAR=1993
DGENRE=Jazz
TTITLE0=The Oxford Stomp
TTITLE1=Wild Women Don't Worry
TTITLE2=Emu Strut
TTITLE3=Snag It
TTITLE4=New Orleans Hop Scop Blues
TTITLE5=Mahogany Hall Stomp
TTITLE6=Ma Rainey's Black Bottom
TTITLE7=The Stampeed
TTITLE8=Let's Get Away From It All
TTITLE9=Mississippi Rag
TTITLE10=Soliloquy 
TTITLE11=Muskrat Ramble
TTITLE12=My Mother's Son-in-Law
TTITLE13=Minstrels of Annie Street
TTITLE14=A Good Man is Hard to Find
TTITLE15=My Honey's Lovin' Arms
EXTD=YEAR: 1993
EXTT0=
EXTT1=
EXTT2=
EXTT3=
EXTT4=
EXTT5=
EXTT6=
EXTT7=
EXTT8=
EXTT9=
EXTT10=
EXTT11=
EXTT12=
EXTT13=
EXTT14=
EXTT15=
PLAYORDER=
